<svg width="83" height="79" viewBox="0 0 83 79" fill="none" xmlns="http://www.w3.org/2000/svg">
<g clip-path="url(#clip0_1301_228)">
<path d="M51.0025 58.4876V53.053L40.0118 65.7422L51.0025 78.431V72.995H63.3996C65.1145 72.995 66.7992 72.5469 68.2844 71.6959C69.7696 70.8448 71.0029 69.6207 71.8604 68.1466L77.9759 57.6317C76.7175 58.1949 75.353 58.4867 73.9726 58.4876H51.0025Z" fill="#0FB5DF"/>
<path d="M80.7916 41.2029L73.493 28.6553L60.8381 35.9099C60.8381 35.9099 70.7484 52.9494 72.879 56.6109C74.3901 56.6109 78.4263 56.7713 80.793 52.7022C80.8578 52.589 84.2748 47.1889 80.7916 41.2029Z" fill="#D6D6D6"/>
<path d="M51.368 23.4078L46.6253 26.1258L63.1913 29.2286L68.7671 13.4366L64.0244 16.1546L57.8255 5.49742C56.968 4.02323 55.7347 2.79905 54.2496 1.94792C52.7644 1.09678 51.0797 0.648692 49.3647 0.648682H37.1325C38.2537 1.44852 39.1911 2.47539 39.8829 3.66145L51.368 23.4078Z" fill="#0FB5DF"/>
<path d="M21.3904 6.44261L14.0918 18.9902L26.7482 26.243L38.7891 5.54241C38.0336 4.24329 36.1561 0.693665 31.4222 0.693665C31.2923 0.693665 24.8722 0.456273 21.3904 6.44261Z" fill="#D6D6D6"/>
<path d="M34.3372 72.6563C29.6423 72.7181 25.0177 71.5195 20.9527 69.1872C15.6501 66.1502 10.2619 59.6252 10.4206 54.4015C12.4111 59.2567 18.4425 65.5451 22.2692 67.0387C31.2375 50.5346 11.6779 37.665 11.408 29.2285C-9.54095 47.3178 1.92254 74.42 17.3348 71.0806C21.3042 73.7661 25.8732 75.451 30.6462 75.9896C32.6338 76.2143 34.3635 74.6429 34.3372 72.6563Z" fill="#0FB5DF"/>
</g>
<defs>
<clipPath id="clip0_1301_228">
<rect width="82.3578" height="77.7824" fill="white" transform="translate(-0.00231934 0.648682)"/>
</clipPath>
</defs>
</svg>
