<svg width="103" height="109" viewBox="0 0 103 109" fill="none" xmlns="http://www.w3.org/2000/svg">
<g clip-path="url(#clip0_47_131)">
<path d="M62.3659 58.4877V53.0531L51.3752 65.7423L62.3659 78.4311V72.9951H74.763C76.4779 72.9951 78.1626 72.5471 79.6478 71.696C81.133 70.8449 82.3663 69.6208 83.2238 68.1467L89.3393 57.6318C88.0809 58.195 86.7164 58.4868 85.336 58.4877H62.3659Z" fill="#0FB5DF"/>
<path d="M92.1549 41.203L84.8563 28.6554L72.2014 35.91C72.2014 35.91 82.1118 52.9496 84.2423 56.611C85.7534 56.611 89.7896 56.7714 92.1564 52.7024C92.2211 52.5891 95.6382 47.189 92.1549 41.203Z" fill="#D6D6D6"/>
<path d="M62.7313 23.4078L57.9886 26.1258L74.5547 29.2286L80.1305 13.4366L75.3877 16.1546L69.1888 5.49742C68.3314 4.02323 67.0981 2.79905 65.6129 1.94792C64.1277 1.09678 62.443 0.648692 60.728 0.648682H48.4958C49.617 1.44852 50.5545 2.47539 51.2463 3.66145L62.7313 23.4078Z" fill="#0FB5DF"/>
<path d="M32.7539 6.44273L25.4553 18.9904L38.1117 26.2431L50.1527 5.54253C49.3971 4.24341 47.5196 0.693787 42.7857 0.693787C42.6559 0.693787 36.2357 0.456395 32.7539 6.44273Z" fill="#D6D6D6"/>
<path d="M45.7006 72.6564C41.0057 72.7182 36.3812 71.5197 32.3161 69.1874C27.0135 66.1503 21.6254 59.6253 21.7841 54.4016C23.7746 59.2569 29.806 65.5452 33.6326 67.0389C42.601 50.5347 23.0413 37.6651 22.7714 29.2286C1.82251 47.3179 13.286 74.4201 28.6983 71.0807C32.6677 73.7662 37.2366 75.4511 42.0097 75.9897C43.9972 76.2144 45.727 74.643 45.7006 72.6564Z" fill="#0FB5DF"/>
</g>
<path d="M1.53925 103V87.4721H7.6303C11.1584 87.4721 13.1852 89.456 13.1852 92.5337C13.1852 94.657 12.2093 96.2012 10.4399 96.9626L13.7428 103H10.1825L7.21207 97.488H4.75635V103H1.53925ZM4.75635 94.8715H7.02977C8.93859 94.8715 9.87155 94.0886 9.86082 92.5337C9.87155 90.968 8.93859 90.1209 7.02977 90.1101H4.75635V94.8715ZM20.654 103.236C17.083 103.225 14.8954 100.92 14.9061 97.2307C14.8954 93.6382 17.1152 91.204 20.5253 91.204C23.5816 91.204 25.9944 93.1342 25.9944 97.102V98.0028H18.0374C18.0374 99.7614 19.0776 100.845 20.7183 100.855C21.8014 100.845 22.5735 100.373 22.8845 99.6757H25.9086C25.4582 101.831 23.5279 103.225 20.654 103.236ZM18.0374 96.0082H22.9917C22.981 94.5926 22.0052 93.5739 20.5896 93.5846C19.1312 93.5739 18.1018 94.6677 18.0374 96.0082ZM33.4418 103.236C29.8708 103.225 27.726 100.759 27.7368 97.2092C27.726 93.649 29.9137 91.204 33.4418 91.204C36.4444 91.204 38.4819 92.9519 38.6106 95.6221H35.6294C35.4364 94.4747 34.6857 93.6811 33.4847 93.6704C31.9619 93.6811 30.9539 94.9572 30.9539 97.1663C30.9539 99.4183 31.9404 100.705 33.4847 100.705C34.5999 100.705 35.4256 100.008 35.6294 98.7749H38.6106C38.4712 101.413 36.5302 103.225 33.4418 103.236ZM42.6693 107.375C42.0473 107.365 41.4682 107.354 41.0607 107.311V104.844C41.4682 104.877 41.9508 104.887 42.3476 104.887C42.9803 104.887 43.4843 104.823 43.8703 103.815L44.0633 103.322L39.8811 91.3541H43.2055L45.6505 99.933H45.7791L48.2456 91.3541H51.6128L47.066 104.287C46.4011 106.163 45.125 107.365 42.6693 107.375ZM58.2237 103.236C54.6528 103.225 52.508 100.759 52.5188 97.2092C52.508 93.649 54.6957 91.204 58.2237 91.204C61.2264 91.204 63.2639 92.9519 63.3926 95.6221H60.4114C60.2184 94.4747 59.4677 93.6811 58.2666 93.6704C56.7439 93.6811 55.7359 94.9572 55.7359 97.1663C55.7359 99.4183 56.7224 100.705 58.2666 100.705C59.3819 100.705 60.2076 100.008 60.4114 98.7749H63.3926C63.2532 101.413 61.3122 103.225 58.2237 103.236ZM68.7595 87.4721V103H65.5853V87.4721H68.7595ZM71.4456 103V91.3541H74.6198V103H71.4456ZM71.2955 88.2228C71.2955 87.322 72.0783 86.6035 73.0327 86.5928C73.9764 86.6035 74.7592 87.322 74.7485 88.2228C74.7592 89.1021 73.9764 89.8313 73.0327 89.8313C72.0783 89.8313 71.2955 89.1021 71.2955 88.2228ZM80.4801 96.2655V103H77.3059V91.3541H80.33V93.3916H80.4586C80.9841 92.0511 82.228 91.204 83.9546 91.204C86.3888 91.204 87.9759 92.8661 87.9652 95.5792V103H84.8125V96.1368C84.8017 94.6999 84.0296 93.842 82.7106 93.842C81.3916 93.842 80.4801 94.732 80.4801 96.2655ZM95.8844 107.611C92.6673 107.611 90.6835 106.163 90.5011 103.965H93.6325C93.804 104.898 94.6834 105.316 95.9488 105.316C97.4179 105.316 98.4045 104.684 98.4152 103.064V100.941H98.2651C97.8469 101.885 96.8174 102.839 94.9408 102.828C92.3134 102.839 90.2009 100.984 90.2009 97.102C90.2009 93.1664 92.3671 91.204 94.9408 91.204C96.8925 91.204 97.8361 92.3621 98.2651 93.3058H98.3938V91.3541H101.547V103.129C101.536 106.099 99.1981 107.611 95.8844 107.611ZM93.4609 97.1449C93.4502 99.1609 94.3188 100.437 95.9273 100.448C97.5144 100.437 98.4152 99.2145 98.4152 97.1449C98.4152 95.0752 97.5252 93.7347 95.9273 93.7347C94.3081 93.7347 93.4502 95.1395 93.4609 97.1449Z" fill="#0FB5DF"/>
<defs>
<clipPath id="clip0_47_131">
<rect width="82.3578" height="77.7824" fill="white" transform="translate(11.3611 0.648682)"/>
</clipPath>
</defs>
</svg>
